<svg width="20" height="20" viewBox="0 0 20 20" fill="none" xmlns="http://www.w3.org/2000/svg">
<path d="M6.25033 13.3337C6.58185 13.3337 6.89979 13.202 7.13421 12.9675C7.36863 12.7331 7.50033 12.4152 7.50033 12.0837C7.50439 12.0421 7.50439 12.0002 7.50033 11.9587L9.82533 9.63366H10.017H10.2087L11.5503 10.9753C11.5503 10.9753 11.5503 11.017 11.5503 11.042C11.5503 11.3735 11.682 11.6915 11.9164 11.9259C12.1509 12.1603 12.4688 12.292 12.8003 12.292C13.1318 12.292 13.4498 12.1603 13.6842 11.9259C13.9186 11.6915 14.0503 11.3735 14.0503 11.042V10.9753L17.0837 7.91699C17.3309 7.91699 17.5726 7.84368 17.7781 7.70633C17.9837 7.56898 18.1439 7.37375 18.2385 7.14535C18.3331 6.91694 18.3579 6.66561 18.3096 6.42313C18.2614 6.18065 18.1424 5.95792 17.9675 5.78311C17.7927 5.60829 17.57 5.48924 17.3275 5.44101C17.085 5.39278 16.8337 5.41753 16.6053 5.51214C16.3769 5.60675 16.1817 5.76697 16.0443 5.97253C15.907 6.17809 15.8337 6.41977 15.8337 6.66699C15.8296 6.70856 15.8296 6.75042 15.8337 6.79199L12.8253 9.80033H12.692L11.2503 8.33366C11.2503 8.00214 11.1186 7.6842 10.8842 7.44978C10.6498 7.21535 10.3318 7.08366 10.0003 7.08366C9.66881 7.08366 9.35086 7.21535 9.11644 7.44978C8.88202 7.6842 8.75033 8.00214 8.75033 8.33366L6.25033 10.8337C5.91881 10.8337 5.60086 10.9654 5.36644 11.1998C5.13202 11.4342 5.00033 11.7521 5.00033 12.0837C5.00033 12.4152 5.13202 12.7331 5.36644 12.9675C5.60086 13.202 5.91881 13.3337 6.25033 13.3337ZM17.5003 16.667H3.33366V2.50033C3.33366 2.27931 3.24586 2.06735 3.08958 1.91107C2.9333 1.75479 2.72134 1.66699 2.50033 1.66699C2.27931 1.66699 2.06735 1.75479 1.91107 1.91107C1.75479 2.06735 1.66699 2.27931 1.66699 2.50033V17.5003C1.66699 17.7213 1.75479 17.9333 1.91107 18.0896C2.06735 18.2459 2.27931 18.3337 2.50033 18.3337H17.5003C17.7213 18.3337 17.9333 18.2459 18.0896 18.0896C18.2459 17.9333 18.3337 17.7213 18.3337 17.5003C18.3337 17.2793 18.2459 17.0674 18.0896 16.9111C17.9333 16.7548 17.7213 16.667 17.5003 16.667Z" fill="#F84F56"/>
</svg>
