<svg width="20" height="20" viewBox="0 0 20 20" fill="none" xmlns="http://www.w3.org/2000/svg">
<path d="M9.18983 1.66699C8.09548 1.66699 7.01185 1.88254 6.0008 2.30133C4.98975 2.72012 4.07109 3.33395 3.29727 4.10777C1.73447 5.67057 0.856496 7.79019 0.856496 10.0003C0.849211 11.9246 1.51549 13.7908 2.73983 15.2753L1.07316 16.942C0.957532 17.0592 0.879202 17.208 0.848056 17.3696C0.816911 17.5313 0.834347 17.6986 0.898163 17.8503C0.967378 18.0003 1.07958 18.1263 1.22054 18.2123C1.36149 18.2984 1.52483 18.3406 1.68983 18.3337H9.18983C11.4 18.3337 13.5196 17.4557 15.0824 15.8929C16.6452 14.3301 17.5232 12.2105 17.5232 10.0003C17.5232 7.79019 16.6452 5.67057 15.0824 4.10777C13.5196 2.54497 11.4 1.66699 9.18983 1.66699V1.66699ZM9.18983 16.667H3.69816L4.47316 15.892C4.62837 15.7359 4.71549 15.5246 4.71549 15.3045C4.71549 15.0843 4.62837 14.8731 4.47316 14.717C3.38198 13.627 2.70247 12.1924 2.55041 10.6577C2.39834 9.12287 2.78312 7.58283 3.63919 6.29993C4.49526 5.01702 5.76966 4.07062 7.24526 3.62197C8.72086 3.17332 10.3064 3.25016 11.7317 3.83942C13.157 4.42868 14.3339 5.49389 15.0619 6.85357C15.7898 8.21325 16.0239 9.78328 15.7241 11.2962C15.4243 12.8091 14.6093 14.1712 13.4178 15.1505C12.2263 16.1299 10.7321 16.6658 9.18983 16.667V16.667Z" fill="#242731"/>
</svg>
