<svg width="20" height="20" viewBox="0 0 20 20" fill="none" xmlns="http://www.w3.org/2000/svg">
<path d="M18.0903 12.9819L14.3237 9.2236C14.4025 8.83975 14.4416 8.4488 14.4403 8.05693C14.44 6.98248 14.1689 5.92543 13.6519 4.9835C13.135 4.04158 12.3889 3.24517 11.4827 2.66789C10.5765 2.09061 9.53943 1.75109 8.46728 1.68072C7.39513 1.61035 6.32254 1.81139 5.34866 2.26527C5.22527 2.32163 5.11751 2.40727 5.03473 2.51473C4.95196 2.6222 4.89666 2.74825 4.87366 2.88193C4.85074 3.01392 4.85999 3.14949 4.90061 3.27715C4.94122 3.40481 5.01202 3.52079 5.10699 3.61527L8.73199 7.23193L7.23199 8.73193L3.61533 5.10693C3.52005 5.01344 3.4037 4.9442 3.27609 4.90504C3.14847 4.86589 3.01331 4.85796 2.88199 4.88193C2.74914 4.9041 2.62365 4.95813 2.51625 5.0394C2.40885 5.12068 2.32275 5.22677 2.26533 5.3486C1.80993 6.32569 1.60906 7.40208 1.6814 8.47766C1.75374 9.55323 2.09695 10.593 2.67909 11.5003C3.26122 12.4076 4.06338 13.153 5.01094 13.667C5.9585 14.181 7.02068 14.447 8.09866 14.4403C8.49052 14.4415 8.88147 14.4024 9.26533 14.3236L13.0237 18.0903C13.1011 18.1684 13.1933 18.2304 13.2948 18.2727C13.3964 18.315 13.5053 18.3368 13.6153 18.3368C13.7253 18.3368 13.8343 18.315 13.9358 18.2727C14.0374 18.2304 14.1295 18.1684 14.207 18.0903C14.2851 18.0128 14.3471 17.9206 14.3894 17.8191C14.4317 17.7175 14.4535 17.6086 14.4535 17.4986C14.4535 17.3886 14.4317 17.2797 14.3894 17.1781C14.3471 17.0766 14.2851 16.9844 14.207 16.9069L10.1237 12.8236C10.0216 12.7222 9.89508 12.649 9.75635 12.611C9.61762 12.5731 9.47143 12.5717 9.33199 12.6069C8.92964 12.7147 8.51518 12.7707 8.09866 12.7736C7.47537 12.7791 6.85715 12.6612 6.27961 12.4267C5.70207 12.1923 5.17664 11.8459 4.73357 11.4074C4.2905 10.969 3.93855 10.4473 3.69801 9.87223C3.45746 9.29719 3.33307 8.68025 3.33199 8.05693C3.33091 7.77778 3.35321 7.49903 3.39866 7.2236L6.66533 10.4986C6.7428 10.5767 6.83496 10.6387 6.93651 10.681C7.03806 10.7233 7.14698 10.7451 7.25699 10.7451C7.367 10.7451 7.47592 10.7233 7.57747 10.681C7.67902 10.6387 7.77119 10.5767 7.84866 10.4986L10.4987 7.8236C10.6489 7.66821 10.7328 7.46055 10.7328 7.24443C10.7328 7.02832 10.6489 6.82066 10.4987 6.66527L7.25699 3.3986C7.53248 3.35361 7.81119 3.33131 8.09033 3.33193C9.34203 3.33414 10.5417 3.83293 11.426 4.7188C12.3103 5.60467 12.807 6.80523 12.807 8.05693C12.8041 8.47346 12.7481 8.88791 12.6403 9.29027C12.6051 9.4297 12.6065 9.5759 12.6444 9.71463C12.6824 9.85335 12.7556 9.97989 12.857 10.0819L16.9403 14.1653C17.0972 14.3222 17.3101 14.4103 17.532 14.4103C17.7539 14.4103 17.9667 14.3222 18.1237 14.1653C18.2806 14.0083 18.3687 13.7955 18.3687 13.5736C18.3687 13.3517 18.2806 13.1389 18.1237 12.9819H18.0903Z" fill="#72767C"/>
</svg>
