<svg width="18" height="18" viewBox="0 0 18 18" fill="none" xmlns="http://www.w3.org/2000/svg">
<path d="M8.99935 4.83366C8.77834 4.83366 8.56638 4.92146 8.4101 5.07774C8.25382 5.23402 8.16602 5.44598 8.16602 5.66699V9.00033C8.16602 9.22134 8.25382 9.4333 8.4101 9.58958C8.56638 9.74586 8.77834 9.83366 8.99935 9.83366C9.22037 9.83366 9.43233 9.74586 9.58861 9.58958C9.74489 9.4333 9.83269 9.22134 9.83269 9.00033V5.66699C9.83269 5.44598 9.74489 5.23402 9.58861 5.07774C9.43233 4.92146 9.22037 4.83366 8.99935 4.83366ZM9.76602 12.017C9.74778 11.9639 9.72256 11.9134 9.69102 11.867L9.59102 11.742C9.47383 11.6264 9.32502 11.548 9.16336 11.5169C9.00171 11.4857 8.83444 11.5032 8.68269 11.567C8.5817 11.6092 8.48869 11.6684 8.40769 11.742C8.33045 11.8199 8.26935 11.9122 8.22788 12.0137C8.18641 12.1153 8.16539 12.224 8.16602 12.3337C8.16734 12.4426 8.18999 12.5501 8.23269 12.6503C8.27011 12.7537 8.32982 12.8477 8.40759 12.9254C8.48536 13.0032 8.57927 13.0629 8.68269 13.1003C8.78244 13.1444 8.89029 13.1672 8.99935 13.1672C9.10841 13.1672 9.21627 13.1444 9.31602 13.1003C9.41943 13.0629 9.51335 13.0032 9.59111 12.9254C9.66888 12.8477 9.72859 12.7537 9.76602 12.6503C9.80872 12.5501 9.83137 12.4426 9.83269 12.3337C9.83678 12.2782 9.83678 12.2225 9.83269 12.167C9.81834 12.1139 9.79585 12.0633 9.76602 12.017V12.017ZM8.99935 0.666992C7.35118 0.666992 5.74001 1.15573 4.3696 2.07141C2.99919 2.98709 1.93109 4.28858 1.30036 5.8113C0.669626 7.33401 0.504599 9.00957 0.826142 10.6261C1.14769 12.2426 1.94136 13.7274 3.1068 14.8929C4.27223 16.0583 5.75709 16.852 7.3736 17.1735C8.99011 17.4951 10.6657 17.3301 12.1884 16.6993C13.7111 16.0686 15.0126 15.0005 15.9283 13.6301C16.8439 12.2597 17.3327 10.6485 17.3327 9.00033C17.3327 7.90598 17.1171 6.82234 16.6983 5.8113C16.2796 4.80025 15.6657 3.88159 14.8919 3.10777C14.1181 2.33395 13.1994 1.72012 12.1884 1.30133C11.1773 0.88254 10.0937 0.666992 8.99935 0.666992V0.666992ZM8.99935 15.667C7.68081 15.667 6.39188 15.276 5.29555 14.5435C4.19922 13.8109 3.34474 12.7697 2.84016 11.5515C2.33557 10.3334 2.20355 8.99293 2.46078 7.69972C2.71802 6.40652 3.35296 5.21863 4.28531 4.28628C5.21766 3.35393 6.40554 2.71899 7.69875 2.46176C8.99196 2.20452 10.3324 2.33654 11.5506 2.84113C12.7687 3.34571 13.8099 4.2002 14.5425 5.29652C15.275 6.39285 15.666 7.68178 15.666 9.00033C15.666 10.7684 14.9636 12.4641 13.7134 13.7144C12.4632 14.9646 10.7675 15.667 8.99935 15.667V15.667Z" fill="#FF5A5A"/>
</svg>
